<?xml version="1.0" encoding="iso-8859-1"?>
<!-- Uploaded to: SVG Repo, www.svgrepo.com, Generator: SVG Repo Mixer Tools -->
<svg height="800px" width="800px" version="1.1" id="Layer_1" xmlns="http://www.w3.org/2000/svg" xmlns:xlink="http://www.w3.org/1999/xlink" 
	 viewBox="0 0 511.996 511.996" xml:space="preserve">
<g transform="translate(-1 -1)">
	<g>
		<path style="fill:#285680;" d="M146.061,103.4c-1.033,0-2.074-0.188-3.089-0.589c-4.395-1.707-6.571-6.656-4.855-11.042
			c12.629-32.444,16.478-51.661,16.478-82.236c0-4.719,3.823-8.533,8.533-8.533c4.719,0,8.533,3.814,8.533,8.533
			c0,32.631-4.284,54.118-17.647,88.422C152.7,101.335,149.474,103.4,146.061,103.4"/>
		<path style="fill:#285680;" d="M367.936,103.4c-3.413,0-6.639-2.065-7.953-5.444c-13.363-34.304-17.647-55.791-17.647-88.422
			c0-4.719,3.814-8.533,8.533-8.533c4.71,0,8.533,3.814,8.533,8.533c0,30.575,3.849,49.792,16.478,82.236
			c1.715,4.386-0.461,9.335-4.855,11.042C370.009,103.212,368.968,103.4,367.936,103.4"/>
	</g>
	<path style="fill:#4482C3;" d="M265.532,512.996h-17.067c-3.558,0-6.741-2.21-7.996-5.538
		c-25.506-68.036-105.003-97.075-105.805-97.357c-4.378-1.562-6.699-6.332-5.231-10.735l34.133-102.4
		c11.904-33.673,8.047-59.307,2.722-74.906c-2.867-8.405-8.226-16.503-16.862-25.489c-29.056-30.225-19.678-78.302-11.503-104.269
		c1.118-3.558,4.412-5.973,8.141-5.973c52.352,0,89.583,16.913,110.933,50.321c21.35-33.408,58.581-50.321,110.933-50.321
		c3.729,0,7.023,2.415,8.141,5.973c8.175,25.967,17.553,74.044-11.503,104.269c-8.636,8.986-13.995,17.084-16.862,25.489
		c-5.325,15.599-9.182,41.233,2.671,74.761c0.017,0.043,0.034,0.094,0.051,0.145l34.133,102.4c1.468,4.395-0.862,9.165-5.222,10.726
		c-0.802,0.29-80.375,29.517-105.813,97.365C272.273,510.786,269.09,512.996,265.532,512.996"/>
</g>
</svg>